<?xml version="1.0" encoding="UTF-8"?>
<svg width="8" height="8" version="1.1" viewBox="0 0 8 8" xmlns="http://www.w3.org/2000/svg"><path d="m6 0.17719v0.82281h-0.5c-0.35 0-0.56 0.1-0.78 0.38l-1.41 1.78-1.53-1.78c-0.22-0.26-0.44-0.38-0.78-0.38h-0.91141v1h0.91141c-0.05 0 0.01 0.04 0.03 0.03l1.63 1.91-1.66 2.06h-0.91141v1h0.91141c0.35 0 0.56-0.1 0.78-0.38l1.53-1.91 1.66 1.91c0.22 0.26 0.44 0.38 0.78 0.38h0.25v0.82281l1.8747-1.3228-1.8747-1.3228v0.82281h-0.22c-0.01-0.01-0.05-0.04-0.06-0.03l-1.75-2.06 1.53-1.91h0.5v0.81395l1.8747-1.314z" fill="#b59348"/></svg>
